China is plunged into strife as feuding warlords try to expand their power by warring over neighboring lands. Fuelled by his success on the battlefield, young and arrogant Hao Jie sneers at Shaolin's masters after killing a rival warlord on their temple grounds. But the glory comes before a fall. His own family is wiped out in an unexpected turn of events and Hao is forced to take refuge with the monks. As the civil unrest spreads and the people suffer, Hao and the Shaolin masters are forced to take a fiery stand against the evil warlords. They launch a daring plan of rescue and escape. 

Director:
Benny Chan
Writers:
Cheung Tan, Alan Yuen, and 1 more credit »
Stars:
Andy Lau, Nicholas Tse and Bingbing Fan 

Media info:

General
Complete name                    : E:\torrent2\Shaolin 2011.BluRay rip.MKV.1080p AVC.A5.1-ACB-Team\Shaolin 2011.BluRay rip.MKV.1080p AVC.A5.1-ACB-Team.mkv
Format                           : Matroska
File size                        : 10.8 GiB
Duration                         : 2h 11mn
Overall bit rate                 : 11.8 Mbps
Movie name                       : movie
Encoded date                     : UTC 2011-07-09 07:16:40
Writing application              : mkvmerge v3.2.0 ('Beginnings') built on Feb 12 2010 16:46:17
Writing library                  : libebml v0.7.9 + libmatroska v0.8.1

Video
ID                               : 1
Format                           : AVC
Format/Info                      : Advanced Video Codec
Format profile                   : High@L4.1
Format settings, CABAC           : Yes
Format settings, ReFrames        : 3 frames
Format settings, GOP             : M=1, N=16
Muxing mode                      : Container profile=Unknown@0.0
Codec ID                         : V_MPEG4/ISO/AVC
Duration                         : 2h 11mn
Bit rate mode                    : Variable
Bit rate                         : 11.4 Mbps
Maximum bit rate                 : 35.0 Mbps
Width                            : 1 920 pixels
Height                           : 1 080 pixels
Display aspect ratio             : 16:9
Frame rate                       : 23.976 fps
Color space                      : YUV
Chroma subsampling               : 4:2:0
Bit depth                        : 8 bits
Scan type                        : Progressive
Bits/(Pixel*Frame)               : 0.229
Stream size                      : 10.2 GiB (94%)
Writing library                  : x264 core 114 r1900 60ef1f8
Encoding settings                : cabac=1 / ref=1 / deblock=1:0:0 / analyse=0x3:0x3 / me=dia / subme=1 / psy=1 / psy_rd=0.00:0.00 / mixed_ref=0 / me_range=16 / chroma_me=1 / trellis=0 / 8x8dct=1 / cqm=0 / deadzone=21,11 / fast_pskip=1 / chroma_qp_offset=0 / threads=3 / sliced_threads=0 / slices=4 / nr=0 / decimate=1 / interlaced=0 / constrained_intra=0 / bframes=3 / b_pyramid=1 / b_adapt=1 / b_bias=0 / direct=1 / weightb=1 / open_gop=0 / weightp=1 / keyint=24 / keyint_min=1 / scenecut=40 / intra_refresh=0 / rc_lookahead=0 / rc=abr / mbtree=0 / bitrate=11363 / ratetol=1.0 / qcomp=0.60 / qpmin=0 / qpmax=69 / qpstep=4 / vbv_maxrate=35000 / vbv_bufsize=30000 / nal_hrd=vbr / ip_ratio=1.10 / pb_ratio=1.10 / aq=1:1.00

Audio
ID                               : 2
Format                           : AC-3
Format/Info                      : Audio Coding 3
Mode extension                   : CM (complete main)
Codec ID                         : A_AC3
Duration                         : 2h 11mn
Bit rate mode                    : Constant
Bit rate                         : 448 Kbps
Channel(s)                       : 6 channels
Channel positions                : Front: L C R, Side: L R, LFE
Sampling rate                    : 48.0 KHz
Bit depth                        : 16 bits
Stream size                      : 420 MiB (4%)
Language                         : Chinese

Text #1
ID                               : 3
Format                           : VobSub
Muxing mode                      : zlib
Codec ID                         : S_VOBSUB
Codec ID/Info                    : The same subtitle format used on DVDs
Language                         : English

Text #2
ID                               : 4
Format                           : VobSub
Muxing mode                      : zlib
Codec ID                         : S_VOBSUB
Codec ID/Info                    : The same subtitle format used on DVDs
Language                         : Chinese

Text #3
ID                               : 5
Format                           : UTF-8
Codec ID                         : S_TEXT/UTF8
Codec ID/Info                    : UTF-8 Plain Text
Language                         : Dutch

Menu
00:00:00.000                     : en:00:00:00.000
00:08:11.657                     : en:00:08:11.657
00:15:49.740                     : en:00:15:49.740
00:19:32.629                     : en:00:19:32.629
00:26:34.009                     : en:00:26:34.009
00:33:17.412                     : en:00:33:17.412
00:42:16.408                     : en:00:42:16.408
00:49:03.190                     : en:00:49:03.190
00:58:23.791                     : en:00:58:23.791
01:06:58.472                     : en:01:06:58.472
01:18:56.815                     : en:01:18:56.815
01:26:40.486                     : en:01:26:40.486
01:36:04.925                     : en:01:36:04.925
01:48:03.935                     : en:01:48:03.935
02:01:56.350                     : en:02:01:56.350

